<svg   id="chart"   width="1000"   height="500"   viewBox="0 0 1000 500"   xmlns="http://www.w3.org/2000/svg" >      <path d="M 0,154.44389779489853 C 10.600000000000001,195.63882771124182 31.799999999999997,380.9482426109567 53,360.4185473766149 C 74.2,339.88885214227315 84.80000000000001,107.98210053550318 106,51.79542162318961 C 127.2,-4.391257289123949 137.79999999999998,38.43549971755136 159,79.48515281504712 C 180.2,120.53480591254288 190.79999999999998,196.89284875907578 212,257.04368711066843 C 233.2,317.1945254622611 243.8,353.0737186788111 265,380.2393445730103 C 286.2,407.4049704672096 296.8,392.2251602548711 318,392.8718165816646 C 339.2,393.518472908458 349.8,423.3913154501091 371,383.4726262069775 C 392.2,343.5539369638459 402.8,206.51925775018583 424,193.27837036600658 C 445.2,180.03748298182734 455.8,310.43716024811715 477,317.26818928608134 C 498.2,324.0992183240455 508.8,273.8051208538385 530,227.43351555582757 C 551.2,181.06191025781663 561.8,84.64270575899546 583,85.41016279602678 C 604.2,86.1776198330581 614.8,187.30029503945053 636,231.27080074098416 C 657.2,275.2413064425178 667.8,301.09470065306976 689,305.26269130369485 C 710.2,309.43068195431994 720.8,250.0081377567476 742,252.11075399410961 C 763.2,254.21337023147166 773.8,294.5832312726267 795,315.775772490505 C 816.2,336.96831370838333 826.8,347.98278479352325 848,358.0734600835011 C 869.2,368.164135373479 879.8,384.2459005184306 901,366.22914894039434 C 922.2,348.2123973623581 932.8,279.3020021168359 954,267.98970219332 C 975.2,256.6774022698041 996.4,301.3320598969157 1007,309.66764932281467,L 1000 500,L 0 500Z" fill="#46e1341a" />   <path d="M 0,154.44389779489853 C 10.600000000000001,195.63882771124182 31.799999999999997,380.9482426109567 53,360.4185473766149 C 74.2,339.88885214227315 84.80000000000001,107.98210053550318 106,51.79542162318961 C 127.2,-4.391257289123949 137.79999999999998,38.43549971755136 159,79.48515281504712 C 180.2,120.53480591254288 190.79999999999998,196.89284875907578 212,257.04368711066843 C 233.2,317.1945254622611 243.8,353.0737186788111 265,380.2393445730103 C 286.2,407.4049704672096 296.8,392.2251602548711 318,392.8718165816646 C 339.2,393.518472908458 349.8,423.3913154501091 371,383.4726262069775 C 392.2,343.5539369638459 402.8,206.51925775018583 424,193.27837036600658 C 445.2,180.03748298182734 455.8,310.43716024811715 477,317.26818928608134 C 498.2,324.0992183240455 508.8,273.8051208538385 530,227.43351555582757 C 551.2,181.06191025781663 561.8,84.64270575899546 583,85.41016279602678 C 604.2,86.1776198330581 614.8,187.30029503945053 636,231.27080074098416 C 657.2,275.2413064425178 667.8,301.09470065306976 689,305.26269130369485 C 710.2,309.43068195431994 720.8,250.0081377567476 742,252.11075399410961 C 763.2,254.21337023147166 773.8,294.5832312726267 795,315.775772490505 C 816.2,336.96831370838333 826.8,347.98278479352325 848,358.0734600835011 C 869.2,368.164135373479 879.8,384.2459005184306 901,366.22914894039434 C 922.2,348.2123973623581 932.8,279.3020021168359 954,267.98970219332 C 975.2,256.6774022698041 996.4,301.3320598969157 1007,309.66764932281467" fill="none" stroke="#46e134" stroke-width="4px" />   <g>   		<circle cx="0" cy="154.44389779489853" r="8" fill="#46e134" />,		<circle cx="53" cy="360.4185473766149" r="8" fill="#46e134" />,		<circle cx="106" cy="51.79542162318961" r="8" fill="#46e134" />,		<circle cx="159" cy="79.48515281504712" r="8" fill="#46e134" />,		<circle cx="212" cy="257.04368711066843" r="8" fill="#46e134" />,		<circle cx="265" cy="380.2393445730103" r="8" fill="#46e134" />,		<circle cx="318" cy="392.8718165816646" r="8" fill="#46e134" />,		<circle cx="371" cy="383.4726262069775" r="8" fill="#46e134" />,		<circle cx="424" cy="193.27837036600658" r="8" fill="#46e134" />,		<circle cx="477" cy="317.26818928608134" r="8" fill="#46e134" />,		<circle cx="530" cy="227.43351555582757" r="8" fill="#46e134" />,		<circle cx="583" cy="85.41016279602678" r="8" fill="#46e134" />,		<circle cx="636" cy="231.27080074098416" r="8" fill="#46e134" />,		<circle cx="689" cy="305.26269130369485" r="8" fill="#46e134" />,		<circle cx="742" cy="252.11075399410961" r="8" fill="#46e134" />,		<circle cx="795" cy="315.775772490505" r="8" fill="#46e134" />,		<circle cx="848" cy="358.0734600835011" r="8" fill="#46e134" />,		<circle cx="901" cy="366.22914894039434" r="8" fill="#46e134" />,		<circle cx="954" cy="267.98970219332" r="8" fill="#46e134" />,		<circle cx="1007" cy="309.66764932281467" r="8" fill="#46e134" />   </g> </svg>